<svg width="34" height="34" viewBox="0 0 34 34" fill="none" xmlns="http://www.w3.org/2000/svg">
<path d="M9.91666 24.1018L16.1684 24.0806L29.8137 10.5656C30.3492 10.0301 30.6439 9.3189 30.6439 8.5624C30.6439 7.8059 30.3492 7.09473 29.8137 6.55923L27.5669 4.3124C26.4959 3.2414 24.6273 3.24707 23.5648 4.30815L9.91666 17.826V24.1018ZM25.5637 6.31557L27.8148 8.55815L25.5524 10.7993L23.3056 8.5539L25.5637 6.31557ZM12.75 19.0075L21.2925 10.5457L23.5393 12.7926L14.9982 21.2515L12.75 21.2586V19.0075Z" fill="#6B51DF"/>
<path d="M7.08333 29.75H26.9167C28.4792 29.75 29.75 28.4792 29.75 26.9167V14.637L26.9167 17.4703V26.9167H11.5572C11.5203 26.9167 11.4821 26.9308 11.4453 26.9308C11.3985 26.9308 11.3517 26.9181 11.3036 26.9167H7.08333V7.08333H16.7832L19.6166 4.25H7.08333C5.52075 4.25 4.25 5.52075 4.25 7.08333V26.9167C4.25 28.4792 5.52075 29.75 7.08333 29.75Z" fill="#6B51DF"/>
</svg>
