<svg width="35" height="35" viewBox="0 0 35 35" fill="none" xmlns="http://www.w3.org/2000/svg">
<path d="M17.5 21.875C19.9162 21.875 21.875 19.9162 21.875 17.5C21.875 15.0838 19.9162 13.125 17.5 13.125C15.0838 13.125 13.125 15.0838 13.125 17.5C13.125 19.9162 15.0838 21.875 17.5 21.875Z" fill="#85D369"/>
<path d="M33.8406 17.1281C32.5542 13.8006 30.3209 10.9229 27.4168 8.85072C24.5127 6.77858 21.0651 5.60281 17.5 5.46875C13.9349 5.60281 10.4873 6.77858 7.58318 8.85072C4.67907 10.9229 2.44579 13.8006 1.15937 17.1281C1.07249 17.3684 1.07249 17.6316 1.15937 17.8719C2.44579 21.1994 4.67907 24.0771 7.58318 26.1493C10.4873 28.2214 13.9349 29.3972 17.5 29.5312C21.0651 29.3972 24.5127 28.2214 27.4168 26.1493C30.3209 24.0771 32.5542 21.1994 33.8406 17.8719C33.9275 17.6316 33.9275 17.3684 33.8406 17.1281ZM17.5 24.6094C16.0939 24.6094 14.7194 24.1924 13.5502 23.4112C12.3811 22.63 11.4699 21.5197 10.9318 20.2206C10.3937 18.9216 10.2529 17.4921 10.5272 16.113C10.8015 14.7339 11.4786 13.4672 12.4729 12.4729C13.4672 11.4786 14.7339 10.8015 16.113 10.5272C17.4921 10.2529 18.9216 10.3937 20.2206 10.9318C21.5197 11.4699 22.63 12.3811 23.4112 13.5502C24.1924 14.7194 24.6094 16.0939 24.6094 17.5C24.6065 19.3846 23.8565 21.1913 22.5239 22.5239C21.1912 23.8565 19.3846 24.6065 17.5 24.6094Z" fill="#85D369"/>
</svg>
