<svg width="195" height="76" viewBox="0 0 195 76" fill="none" xmlns="http://www.w3.org/2000/svg">
<g filter="url(#filter0_d_152_12)">
<path d="M6 11C6 8.23858 8.23858 6 11 6H179.349C183.196 6 185.602 10.1627 183.681 13.4961L154.874 63.4961C153.982 65.0453 152.33 66 150.542 66H11C8.23858 66 6 63.7614 6 61V11Z" fill="#6B51DF"/>
</g>
<path d="M88.2695 44H85.3047L77.6992 31.8945V44H74.7344V26.9375H77.6992L85.3281 39.0898V26.9375H88.2695V44ZM97.082 44.2344C95.2773 44.2344 93.8125 43.668 92.6875 42.5352C91.5703 41.3945 91.0117 39.8789 91.0117 37.9883V37.6367C91.0117 36.3711 91.2539 35.2422 91.7383 34.25C92.2305 33.25 92.918 32.4727 93.8008 31.918C94.6836 31.3633 95.668 31.0859 96.7539 31.0859C98.4805 31.0859 99.8125 31.6367 100.75 32.7383C101.695 33.8398 102.168 35.3984 102.168 37.4141V38.5625H93.8828C93.9688 39.6094 94.3164 40.4375 94.9258 41.0469C95.543 41.6562 96.3164 41.9609 97.2461 41.9609C98.5508 41.9609 99.6133 41.4336 100.434 40.3789L101.969 41.8438C101.461 42.6016 100.781 43.1914 99.9297 43.6133C99.0859 44.0273 98.1367 44.2344 97.082 44.2344ZM96.7422 33.3711C95.9609 33.3711 95.3281 33.6445 94.8438 34.1914C94.3672 34.7383 94.0625 35.5 93.9297 36.4766H99.3555V36.2656C99.293 35.3125 99.0391 34.5938 98.5938 34.1094C98.1484 33.6172 97.5312 33.3711 96.7422 33.3711ZM115.527 40.0742L117.543 31.3203H120.32L116.863 44H114.52L111.801 35.293L109.129 44H106.785L103.316 31.3203H106.094L108.145 39.9805L110.746 31.3203H112.891L115.527 40.0742Z" fill="white"/>
<defs>
<filter id="filter0_d_152_12" x="0" y="0" width="194.356" height="76" filterUnits="userSpaceOnUse" color-interpolation-filters="sRGB">
<feFlood flood-opacity="0" result="BackgroundImageFix"/>
<feColorMatrix in="SourceAlpha" type="matrix" values="0 0 0 0 0 0 0 0 0 0 0 0 0 0 0 0 0 0 127 0" result="hardAlpha"/>
<feOffset dx="2" dy="2"/>
<feGaussianBlur stdDeviation="4"/>
<feComposite in2="hardAlpha" operator="out"/>
<feColorMatrix type="matrix" values="0 0 0 0 0 0 0 0 0 0 0 0 0 0 0 0 0 0 0.25 0"/>
<feBlend mode="normal" in2="BackgroundImageFix" result="effect1_dropShadow_152_12"/>
<feBlend mode="normal" in="SourceGraphic" in2="effect1_dropShadow_152_12" result="shape"/>
</filter>
</defs>
</svg>
